<?xml version="1.0" encoding="utf-8"?>
<!-- Generator: Adobe Illustrator 26.0.2, SVG Export Plug-In . SVG Version: 6.00 Build 0)  -->
<svg version="1.1" id="Layer_1" xmlns="http://www.w3.org/2000/svg" xmlns:xlink="http://www.w3.org/1999/xlink" x="0px" y="0px"
	 viewBox="0 0 50 50" style="enable-background:new 0 0 50 50;" xml:space="preserve">
<style type="text/css">
	.st0{fill:none;stroke:#693D17;stroke-width:4;stroke-miterlimit:10;}
	.st1{stroke:#000000;stroke-miterlimit:10;}
	.st2{fill:url(#SVGID_1_);}
</style>
<g>
	<path class="st0" d="M20.27,13.74c0,0-0.79-12.39,9.07-11.12s10.52,5.26,10.52,5.26"/>
	<path class="st1" d="M38.03,30.82c-0.38,22.2-33.41,22.2-33.78,0C4.63,8.61,37.66,8.62,38.03,30.82z"/>
	<g>
		
			<radialGradient id="SVGID_1_" cx="49.353" cy="20.9348" r="6.2585" gradientTransform="matrix(0.3748 -0.3244 0.6544 0.7561 9.3204 9.1508)" gradientUnits="userSpaceOnUse">
			<stop  offset="0" style="stop-color:#FFF33B"/>
			<stop  offset="1.387586e-03" style="stop-color:#FFF13B"/>
			<stop  offset="0.0701" style="stop-color:#FECC40"/>
			<stop  offset="0.1402" style="stop-color:#F8AD41"/>
			<stop  offset="0.2113" style="stop-color:#F39440"/>
			<stop  offset="0.2833" style="stop-color:#F0823E"/>
			<stop  offset="0.3564" style="stop-color:#EF743D"/>
			<stop  offset="0.4315" style="stop-color:#ED6B3D"/>
			<stop  offset="0.5115" style="stop-color:#ED683C"/>
			<stop  offset="1" style="stop-color:#E93E3A"/>
		</radialGradient>
		<path class="st2" d="M37.58,8.48c-2.09-6.8,6.45-3.56,8.03,0.28c0.91,1.73-3.11-0.57-3.8-0.22c4.72,4.12,2.54,3.9-1.58,1.3
			c1.24,1.45,2.67,3.09,3,4.77c-2.32-0.78-5.52-4.07-6-6.51"/>
	</g>
</g>
</svg>
