<?xml version="1.0" encoding="utf-8"?>
<!-- Generator: Adobe Illustrator 26.0.2, SVG Export Plug-In . SVG Version: 6.00 Build 0)  -->
<svg version="1.1" id="Layer_1" xmlns="http://www.w3.org/2000/svg" xmlns:xlink="http://www.w3.org/1999/xlink" x="0px" y="0px"
	 viewBox="0 0 50 50" style="enable-background:new 0 0 50 50;" xml:space="preserve">
<style type="text/css">
	.st0{fill:#ED1A3A;}
</style>
<rect x="1" y="39.01" width="34.85" height="5.43"/>
<path class="st0" d="M48.63,12.17c-4.84-0.72-9.09,1.9-13.67,1.9c-3.6,0-6.21-2.29-9.02-4.09c-1.08-0.75-2.13-1.14-3.07-1.37
	C21,8.15,19.83,7.85,19.83,7.85v14.16c0,0,1.18-0.29,3.04-0.75c0.95-0.23,2.09-0.36,3.53-0.2c7.91,2.13,14.12-3.11,19.45-7.75
	C47.49,12.49,48.63,12.17,48.63,12.17z"/>
<rect x="5.21" y="35.87" width="26.19" height="3.92"/>
<rect x="17.15" y="5.6" width="2.71" height="37.27"/>
</svg>
