<?xml version="1.0" encoding="utf-8"?>
<!-- Generator: Adobe Illustrator 26.0.2, SVG Export Plug-In . SVG Version: 6.00 Build 0)  -->
<svg version="1.1" id="Layer_1" xmlns="http://www.w3.org/2000/svg" xmlns:xlink="http://www.w3.org/1999/xlink" x="0px" y="0px"
	 viewBox="0 0 600 300" style="enable-background:new 0 0 600 300;" xml:space="preserve">
<style type="text/css">
	.st0{fill:#126B36;stroke:#000000;stroke-width:5;stroke-miterlimit:10;}
	.st1{fill:none;stroke:#2B2C7B;stroke-width:5;stroke-miterlimit:10;}
	.st2{fill:#2B2C7B;stroke:#2B2C7B;stroke-width:5;stroke-miterlimit:10;}
	.st3{fill:#ED1A3A;}
</style>
<rect x="221.6" y="150.2" class="st0" width="163.3" height="142.4"/>
<path class="st1" d="M14.9,127.9c0,0,30.2-21.6,30.9-91.2c0,0,15.9,15.6,17.3,72.6c0,0,4-42.4,26.2-71c0,0-13,86.1-2.4,89.5"/>
<path class="st1" d="M112.1,126.6c-11.4-13,0.9-31.2,0.7-40.2"/>
<circle class="st2" cx="112.4" cy="76.6" r="1.7"/>
<path class="st1" d="M129.5,127.1c0,0-5.8-34.7,12.9-46.2s3,47.6,22.2,43.4"/>
<path class="st1" d="M130.5,100.7c0,0-6.7-20.3-2-24"/>
<path class="st1" d="M172.4,101.7c0,0,18.7,6.5,42-1.4c0,0-6-28.4-21.8-25.4C176.8,77.9,172.4,101.7,172.4,101.7z"/>
<path class="st1" d="M214.1,118c0,0-37.1,16.9-41.6-16.3"/>
<path class="st1" d="M261,74.8c0,0-49.3,8.1-20.3,26.3s11.1,23.3-10.6,22.2"/>
<path class="st1" d="M272.9,75.3c0,0-0.2,48.8,15.4,49.9c0,0,14.7-60.1,14.8,1.8c0,0,18.6,11.2,22.5-46.4"/>
<path class="st1" d="M335.9,106.5c0,0,18.7,6.5,42-1.4c0,0-6-28.4-21.8-25.4C340.3,82.7,335.9,106.5,335.9,106.5z"/>
<path class="st1" d="M377.7,122.8c0,0-37.1,16.9-41.6-16.3"/>
<path class="st1" d="M389.7,104.3c0,0,18.7,6.5,42-1.4c0,0-6-28.4-21.8-25.4C394,80.5,389.7,104.3,389.7,104.3z"/>
<path class="st1" d="M431.3,120.6c0,0-37.1,16.9-41.6-16.3"/>
<path class="st1" d="M448.6,143.8c0,0-20.9-105.5,41-51.8c0,0,12.2,19-43.9,20.1"/>
<path class="st1" d="M502.7,108.3c0,0,18.7,6.5,42-1.4c0,0-6-28.4-21.8-25.4C507,84.5,502.7,108.3,502.7,108.3z"/>
<path class="st1" d="M544.3,124.6c0,0-37.1,16.9-41.6-16.3"/>
<path class="st1" d="M561.9,135.2c0,0-4.3-61.5,15.5-52.9c19.8,8.6,16.5,20.5,16.5,20.5"/>
<rect x="235.1" y="263.3" width="106.6" height="16.6"/>
<path class="st3" d="M380.8,181.2C366,179,353,187,339,187c-11,0-19-7-27.6-12.5c-3.3-2.3-6.5-3.5-9.4-4.2c-5.7-1.4-9.3-2.3-9.3-2.3
	v43.3c0,0,3.6-0.9,9.3-2.3c2.9-0.7,6.4-1.1,10.8-0.6c24.2,6.5,43.2-9.5,59.5-23.7C377.3,182.2,380.8,181.2,380.8,181.2z"/>
<rect x="248" y="253.7" width="80.1" height="12"/>
<rect x="284.5" y="161.1" width="8.3" height="114"/>
</svg>
